<?xml version="1.0" encoding="UTF-8" standalone="no"?>
<!DOCTYPE svg PUBLIC "-//W3C//DTD SVG 1.1//EN" "http://www.w3.org/Graphics/SVG/1.1/DTD/svg11.dtd">
<svg version="1.1" xmlns="http://www.w3.org/2000/svg" xmlns:xlink="http://www.w3.org/1999/xlink" preserveAspectRatio="xMidYMid meet" viewBox="0 0 936.55 936.55" width="250" height="250"><defs><path d="M506.65 1.55L525.53 3.47L544.18 6.13L562.59 9.52L580.75 13.62L598.62 18.41L616.21 23.89L633.5 30.03L650.47 36.82L667.11 44.25L683.39 52.3L699.32 60.95L714.86 70.2L730.01 80.02L744.75 90.4L759.07 101.32L772.95 112.78L786.37 124.75L799.33 137.22L811.8 150.17L823.77 163.59L835.22 177.47L846.15 191.79L856.53 206.53L866.35 221.68L875.59 237.22L884.25 253.15L892.3 269.43L899.72 286.07L906.52 303.04L912.66 320.33L918.13 337.92L922.93 355.79L927.03 373.95L930.42 392.35L933.08 411.01L935 429.89L936.16 448.98L936.55 468.27L936.16 487.56L935 506.65L933.08 525.53L930.42 544.18L927.03 562.59L922.93 580.75L918.14 598.62L912.66 616.21L906.52 633.5L899.73 650.47L892.3 667.11L884.25 683.39L875.6 699.32L866.35 714.86L856.53 730.01L846.15 744.75L835.23 759.07L823.77 772.95L811.8 786.37L799.33 799.33L786.38 811.8L772.96 823.77L759.08 835.22L744.76 846.15L730.02 856.53L714.87 866.35L699.33 875.59L683.4 884.25L667.12 892.3L650.48 899.72L633.51 906.52L616.22 912.66L598.63 918.13L580.76 922.93L562.6 927.03L544.2 930.42L525.54 933.08L506.66 935L487.57 936.16L468.28 936.55L448.99 936.16L429.9 935L411.02 933.08L392.37 930.42L373.96 927.03L355.8 922.93L337.93 918.14L320.34 912.66L303.05 906.52L286.08 899.73L269.44 892.3L253.16 884.25L237.23 875.6L221.69 866.35L206.54 856.53L191.8 846.15L177.48 835.23L163.6 823.77L150.18 811.8L137.22 799.33L124.75 786.38L112.78 772.96L101.33 759.08L90.4 744.76L80.02 730.02L70.2 714.87L60.96 699.33L52.3 683.4L44.25 667.12L36.83 650.48L30.03 633.51L23.89 616.22L18.42 598.63L13.62 580.76L9.52 562.6L6.13 544.2L3.47 525.54L1.55 506.66L0.39 487.57L0 468.28L0.39 448.99L1.55 429.9L3.47 411.02L6.13 392.37L9.52 373.96L13.62 355.8L18.41 337.93L23.89 320.34L30.03 303.05L36.82 286.08L44.25 269.44L52.3 253.16L60.95 237.23L70.2 221.69L80.02 206.54L90.4 191.8L101.32 177.48L112.78 163.6L124.75 150.18L137.22 137.22L150.17 124.75L163.59 112.78L177.47 101.33L191.79 90.4L206.53 80.02L221.68 70.2L237.22 60.96L253.15 52.3L269.43 44.25L286.07 36.83L303.04 30.03L320.33 23.89L337.92 18.42L355.79 13.62L373.95 9.52L392.35 6.13L411.01 3.47L429.89 1.55L448.98 0.39L468.27 0L487.56 0.39L506.65 1.55ZM432.28 30.64L414.58 32.44L397.09 34.93L379.82 38.11L362.8 41.95L346.04 46.45L329.55 51.58L313.34 57.34L297.42 63.71L281.83 70.68L266.55 78.23L251.62 86.34L237.05 95.01L222.84 104.22L209.02 113.95L195.59 124.2L182.58 134.94L169.99 146.16L157.85 157.85L146.15 170L134.93 182.59L124.19 195.6L113.95 209.03L104.21 222.85L95 237.06L86.34 251.63L78.22 266.56L70.67 281.83L63.71 297.43L57.34 313.34L51.58 329.55L46.45 346.05L41.95 362.81L38.11 379.83L34.93 397.1L32.44 414.59L30.64 432.29L29.55 450.19L29.18 468.28L29.55 486.37L30.64 504.27L32.44 521.97L34.93 539.46L38.11 556.73L41.95 573.75L46.45 590.51L51.58 607L57.34 623.21L63.71 639.13L70.68 654.72L78.23 670L86.34 684.93L95.01 699.5L104.22 713.71L113.95 727.53L124.2 740.96L134.94 753.97L146.16 766.56L157.85 778.7L170 790.4L182.59 801.62L195.6 812.36L209.03 822.6L222.85 832.34L237.06 841.55L251.63 850.21L266.56 858.33L281.83 865.88L297.43 872.84L313.34 879.21L329.55 884.97L346.05 890.1L362.81 894.6L379.83 898.44L397.1 901.62L414.59 904.11L432.29 905.91L450.19 907L468.28 907.37L486.37 907L504.27 905.91L521.97 904.11L539.46 901.62L556.73 898.44L573.75 894.6L590.51 890.1L607 884.97L623.21 879.21L639.13 872.84L654.72 865.87L670 858.32L684.93 850.21L699.5 841.54L713.71 832.33L727.53 822.6L740.96 812.35L753.97 801.61L766.56 790.39L778.7 778.7L790.4 766.55L801.62 753.96L812.36 740.95L822.6 727.52L832.34 713.7L841.55 699.49L850.21 684.92L858.33 669.99L865.88 654.72L872.84 639.12L879.21 623.21L884.97 607L890.1 590.5L894.6 573.74L898.44 556.72L901.62 539.45L904.11 521.96L905.91 504.26L907 486.36L907.37 468.27L907 450.18L905.91 432.28L904.11 414.58L901.62 397.09L898.44 379.82L894.6 362.8L890.1 346.04L884.97 329.55L879.21 313.34L872.84 297.42L865.87 281.83L858.32 266.55L850.21 251.62L841.54 237.05L832.33 222.84L822.6 209.02L812.35 195.59L801.61 182.58L790.39 169.99L778.7 157.85L766.55 146.15L753.96 134.93L740.95 124.19L727.52 113.95L713.7 104.21L699.49 95L684.92 86.34L669.99 78.22L654.72 70.67L639.12 63.71L623.21 57.34L607 51.58L590.5 46.45L573.74 41.95L556.72 38.11L539.45 34.93L521.96 32.44L504.26 30.64L486.36 29.55L468.27 29.18L450.18 29.55L432.28 30.64Z" id="a17DDIAgU2"></path><path d="M594.4 765.19C594.4 773.1 587.99 779.51 580.08 779.51C572.18 779.51 565.76 773.1 565.76 765.19C565.76 757.29 572.18 750.88 580.08 750.88C587.99 750.88 594.4 757.29 594.4 765.19Z" id="k3n7iPCCu"></path><path d="M372.82 201.05C372.82 208.96 366.41 215.37 358.51 215.37C350.6 215.37 344.19 208.96 344.19 201.05C344.19 193.15 350.6 186.73 358.51 186.73C366.41 186.73 372.82 193.15 372.82 201.05Z" id="bJKjEEMWK"></path><path d="M552.15 93.8L552.46 94.03L552.75 94.35L553.03 94.76L553.3 95.24L553.55 95.8L553.79 96.43L554.03 97.13L554.26 97.9L554.49 98.72L554.73 99.61L554.96 100.55L555.2 101.53L555.44 102.57L555.69 103.65L555.96 104.77L556.24 105.92L556.53 107.1L556.85 108.32L557.18 109.55L557.54 110.81L557.92 112.09L558.33 113.37L558.77 114.67L559.24 115.97L559.74 117.28L560.29 118.58L560.87 119.88L561.49 121.17L562.15 122.45L562.86 123.71L563.62 124.95L564.43 126.16L565.29 127.35L566.21 128.51L567.18 129.63L568.22 130.71L569.3 131.75L570.42 132.72L571.58 133.64L572.77 134.5L573.98 135.31L575.22 136.07L576.48 136.78L577.76 137.44L579.05 138.07L580.35 138.65L581.65 139.19L582.96 139.7L584.26 140.17L585.56 140.61L586.85 141.02L588.12 141.4L589.38 141.76L590.62 142.09L591.83 142.4L593.02 142.7L594.17 142.98L595.29 143.24L596.37 143.5L597.4 143.74L598.39 143.98L599.33 144.21L600.22 144.45L601.04 144.68L601.81 144.91L602.51 145.15L603.14 145.39L603.7 145.65L604.18 145.91L604.59 146.19L604.71 146.3L604.72 146.31L604.99 146.51L605.17 146.72L605.29 146.95L605.33 147.19L605.31 147.33L605.33 147.48L605.29 147.72L605.17 147.95L604.99 148.16L604.72 148.36L604.71 148.37L604.59 148.48L604.18 148.76L603.7 149.02L603.14 149.28L602.51 149.52L601.81 149.76L601.04 149.99L600.22 150.22L599.33 150.45L598.39 150.69L597.4 150.92L596.37 151.17L595.29 151.42L594.17 151.69L593.02 151.97L591.83 152.26L590.62 152.58L589.38 152.91L588.12 153.27L586.85 153.65L585.56 154.06L584.26 154.5L582.96 154.97L581.65 155.48L580.35 156.02L579.05 156.6L577.76 157.22L576.48 157.89L575.22 158.6L573.98 159.36L572.77 160.17L571.58 161.03L570.42 161.95L569.3 162.92L568.22 163.95L567.18 165.04L566.21 166.16L565.29 167.32L564.43 168.51L563.62 169.72L562.86 170.96L562.15 172.22L561.49 173.5L560.87 174.79L560.29 176.09L559.74 177.39L559.24 178.69L558.77 180L558.33 181.29L557.92 182.58L557.54 183.86L557.18 185.11L556.85 186.35L556.53 187.56L556.24 188.75L555.96 189.9L555.69 191.02L555.44 192.1L555.2 193.13L554.96 194.12L554.73 195.06L554.49 195.95L554.26 196.77L554.03 197.54L553.79 198.24L553.55 198.87L553.3 199.43L553.03 199.91L552.75 200.31L552.46 200.63L552.15 200.87L551.82 201.01L551.46 201.05L551.42 201.05L551.38 201.05L551.02 201.01L550.69 200.87L550.38 200.63L550.09 200.31L549.81 199.91L549.54 199.43L549.29 198.87L549.05 198.24L548.81 197.54L548.58 196.77L548.35 195.95L548.12 195.06L547.88 194.12L547.64 193.13L547.4 192.1L547.15 191.02L546.88 189.9L546.6 188.75L546.31 187.56L545.99 186.35L545.66 185.11L545.3 183.86L544.92 182.58L544.51 181.29L544.07 180L543.6 178.69L543.1 177.39L542.55 176.09L541.97 174.79L541.35 173.5L540.69 172.22L539.98 170.96L539.22 169.72L538.41 168.51L537.55 167.32L536.63 166.16L535.66 165.04L534.62 163.95L533.54 162.92L532.42 161.95L531.26 161.03L530.07 160.17L528.86 159.36L527.62 158.6L526.36 157.89L525.08 157.22L523.79 156.6L522.49 156.02L521.19 155.48L519.88 154.97L518.58 154.5L517.28 154.06L515.99 153.65L514.72 153.27L513.46 152.91L512.22 152.58L511.01 152.26L509.82 151.97L508.67 151.69L507.55 151.42L506.47 151.17L505.44 150.92L504.45 150.69L503.51 150.45L502.63 150.22L501.8 149.99L501.03 149.76L500.33 149.52L499.7 149.28L499.14 149.02L498.66 148.76L498.25 148.48L498.13 148.37L498.12 148.36L497.85 148.16L497.67 147.95L497.55 147.72L497.51 147.48L497.53 147.33L497.51 147.19L497.55 146.95L497.67 146.72L497.85 146.51L498.12 146.31L498.13 146.3L498.25 146.19L498.66 145.91L499.14 145.65L499.7 145.39L500.33 145.15L501.03 144.91L501.8 144.68L502.63 144.45L503.51 144.21L504.45 143.98L505.44 143.74L506.47 143.5L507.55 143.24L508.67 142.98L509.82 142.7L511.01 142.4L512.22 142.09L513.46 141.76L514.72 141.4L515.99 141.02L517.28 140.61L518.58 140.17L519.88 139.7L521.19 139.19L522.49 138.65L523.79 138.07L525.08 137.44L526.36 136.78L527.62 136.07L528.86 135.31L530.07 134.5L531.26 133.64L532.42 132.72L533.54 131.75L534.62 130.71L535.66 129.63L536.63 128.51L537.55 127.35L538.41 126.16L539.22 124.95L539.98 123.71L540.69 122.45L541.35 121.17L541.97 119.88L542.55 118.58L543.1 117.28L543.6 115.97L544.07 114.67L544.51 113.37L544.92 112.09L545.3 110.81L545.66 109.55L545.99 108.32L546.31 107.1L546.6 105.92L546.88 104.77L547.15 103.65L547.4 102.57L547.64 101.53L547.88 100.55L548.12 99.61L548.35 98.72L548.58 97.9L548.81 97.13L549.05 96.43L549.29 95.8L549.54 95.24L549.81 94.76L550.09 94.35L550.38 94.03L550.69 93.8L551.02 93.66L551.38 93.61L551.42 93.62L551.46 93.61L551.82 93.66L552.15 93.8Z" id="aBZ3ejb6t"></path><path d="M575.11 258.4L575.69 258.81L576.24 259.37L576.77 260.09L577.26 260.95L577.74 261.94L578.2 263.06L578.65 264.31L579.08 265.68L579.51 267.16L579.94 268.74L580.37 270.42L580.8 272.2L581.25 274.06L581.71 276L582.18 278.02L582.68 280.11L583.2 282.26L583.75 284.46L584.33 286.71L584.95 289.01L585.6 291.34L586.31 293.7L587.05 296.09L587.86 298.5L588.71 300.92L589.63 303.35L590.6 305.77L591.65 308.19L592.76 310.6L593.95 312.98L595.22 315.34L596.57 317.68L598.01 319.97L599.53 322.22L601.15 324.42L602.87 326.56L604.68 328.64L606.61 330.66L608.62 332.58L610.7 334.4L612.84 336.11L615.04 337.73L617.29 339.26L619.59 340.69L621.92 342.04L624.28 343.31L626.67 344.5L629.07 345.62L631.49 346.66L633.92 347.64L636.34 348.56L638.76 349.41L641.17 350.21L643.56 350.96L645.93 351.67L648.26 352.32L650.56 352.94L652.81 353.52L655.01 354.07L657.16 354.6L659.25 355.09L661.27 355.57L663.21 356.03L665.07 356.47L666.85 356.91L668.53 357.34L670.12 357.77L671.6 358.2L672.96 358.64L674.21 359.08L675.34 359.54L676.33 360.02L677.19 360.52L677.9 361.04L678.05 361.18L678.15 361.24L678.61 361.62L678.94 362.02L679.15 362.44L679.21 362.88L679.18 363.17L679.21 363.46L679.15 363.91L678.94 364.33L678.61 364.73L678.15 365.1L678.05 365.16L677.9 365.3L677.19 365.82L676.33 366.32L675.34 366.8L674.21 367.26L672.96 367.71L671.6 368.14L670.12 368.57L668.53 369L666.85 369.43L665.07 369.87L663.21 370.32L661.27 370.77L659.25 371.25L657.16 371.75L655.01 372.27L652.81 372.82L650.56 373.4L648.26 374.02L645.93 374.68L643.56 375.38L641.17 376.13L638.76 376.93L636.34 377.79L633.92 378.7L631.49 379.68L629.07 380.73L626.67 381.84L624.28 383.03L621.92 384.3L619.59 385.65L617.29 387.09L615.04 388.61L612.84 390.23L610.7 391.95L608.62 393.77L606.61 395.69L604.68 397.7L602.87 399.78L601.15 401.92L599.53 404.12L598.01 406.37L596.57 408.67L595.22 411L593.95 413.36L592.76 415.75L591.65 418.15L590.6 420.57L589.63 423L588.71 425.42L587.86 427.84L587.05 430.25L586.31 432.64L585.6 435L584.95 437.34L584.33 439.63L583.75 441.88L583.2 444.09L582.68 446.24L582.18 448.32L581.71 450.34L581.25 452.28L580.8 454.14L580.37 455.92L579.94 457.6L579.51 459.19L579.08 460.66L578.65 462.03L578.2 463.28L577.74 464.4L577.26 465.4L576.77 466.25L576.24 466.97L575.69 467.53L575.11 467.94L574.49 468.19L573.83 468.27L573.74 468.26L573.66 468.27L573 468.19L572.38 467.94L571.8 467.53L571.25 466.97L570.72 466.25L570.22 465.4L569.75 464.4L569.29 463.28L568.84 462.03L568.41 460.66L567.98 459.19L567.55 457.6L567.12 455.92L566.68 454.14L566.24 452.28L565.78 450.34L565.31 448.32L564.81 446.24L564.29 444.09L563.74 441.88L563.16 439.63L562.54 437.34L561.88 435L561.18 432.64L560.43 430.25L559.63 427.84L558.78 425.42L557.86 423L556.88 420.57L555.84 418.15L554.73 415.75L553.54 413.36L552.27 411L550.92 408.67L549.48 406.37L547.96 404.12L546.34 401.92L544.62 399.78L542.81 397.7L540.88 395.69L538.87 393.77L536.79 391.95L534.65 390.23L532.45 388.61L530.2 387.09L527.9 385.65L525.57 384.3L523.21 383.03L520.82 381.84L518.42 380.73L516 379.68L513.57 378.7L511.14 377.79L508.72 376.93L506.32 376.13L503.93 375.38L501.56 374.68L499.23 374.02L496.93 373.4L494.68 372.82L492.47 372.27L490.33 371.75L488.24 371.25L486.22 370.77L484.28 370.32L482.41 369.87L480.64 369.43L478.96 369L477.37 368.57L475.89 368.14L474.53 367.71L473.28 367.26L472.15 366.8L471.16 366.32L470.3 365.82L469.58 365.3L469.44 365.16L469.34 365.1L468.88 364.73L468.54 364.33L468.34 363.91L468.27 363.46L468.31 363.17L468.27 362.88L468.34 362.44L468.54 362.02L468.88 361.62L469.34 361.24L469.44 361.18L469.58 361.04L470.3 360.52L471.16 360.02L472.15 359.54L473.28 359.08L474.53 358.64L475.89 358.2L477.37 357.77L478.96 357.34L480.64 356.91L482.41 356.47L484.28 356.03L486.22 355.57L488.24 355.09L490.33 354.6L492.47 354.07L494.68 353.52L496.93 352.94L499.23 352.32L501.56 351.67L503.93 350.96L506.32 350.21L508.72 349.41L511.14 348.56L513.57 347.64L516 346.66L518.42 345.62L520.82 344.5L523.21 343.31L525.57 342.04L527.9 340.69L530.2 339.26L532.45 337.73L534.65 336.11L536.79 334.4L538.87 332.58L540.88 330.66L542.81 328.64L544.62 326.56L546.34 324.42L547.96 322.22L549.48 319.97L550.92 317.68L552.27 315.34L553.54 312.98L554.73 310.6L555.84 308.19L556.88 305.77L557.86 303.35L558.78 300.92L559.63 298.5L560.43 296.09L561.18 293.7L561.88 291.34L562.54 289.01L563.16 286.71L563.74 284.46L564.29 282.26L564.81 280.11L565.31 278.02L565.78 276L566.24 274.06L566.68 272.2L567.12 270.42L567.55 268.74L567.98 267.16L568.41 265.68L568.84 264.31L569.29 263.06L569.75 261.94L570.22 260.95L570.72 260.09L571.25 259.37L571.8 258.81L572.38 258.4L573 258.15L573.66 258.07L573.74 258.08L573.83 258.07L574.49 258.15L575.11 258.4Z" id="b1k7K2C9Si"></path><path d="M226.2 635.72C226.2 643.63 219.78 650.04 211.88 650.04C203.98 650.04 197.56 643.63 197.56 635.72C197.56 627.82 203.98 621.41 211.88 621.41C219.78 621.41 226.2 627.82 226.2 635.72Z" id="e1nF9agu0S"></path><path d="M699.45 577.9L699.77 578.13L700.06 578.45L700.34 578.86L700.6 579.34L700.86 579.9L701.1 580.53L701.34 581.23L701.57 582L701.8 582.82L702.03 583.71L702.26 584.65L702.5 585.63L702.75 586.67L703 587.75L703.26 588.87L703.54 590.02L703.84 591.2L704.15 592.42L704.49 593.65L704.84 594.91L705.22 596.19L705.63 597.47L706.07 598.77L706.54 600.07L707.05 601.38L707.59 602.68L708.17 603.98L708.79 605.27L709.46 606.55L710.17 607.81L710.93 609.05L711.74 610.26L712.6 611.45L713.51 612.61L714.49 613.73L715.52 614.81L716.6 615.85L717.73 616.82L718.88 617.74L720.07 618.6L721.29 619.41L722.53 620.17L723.79 620.88L725.07 621.54L726.36 622.17L727.65 622.75L728.96 623.29L730.26 623.8L731.57 624.27L732.86 624.71L734.15 625.12L735.43 625.5L736.69 625.86L737.92 626.19L739.14 626.5L740.32 626.8L741.47 627.08L742.59 627.34L743.67 627.6L744.71 627.84L745.7 628.08L746.64 628.31L747.52 628.55L748.35 628.78L749.11 629.01L749.81 629.25L750.45 629.49L751.01 629.75L751.49 630.01L751.89 630.29L752.01 630.4L752.03 630.41L752.29 630.61L752.48 630.82L752.59 631.05L752.63 631.29L752.61 631.43L752.63 631.58L752.59 631.82L752.48 632.05L752.29 632.26L752.03 632.46L752.01 632.47L751.89 632.58L751.49 632.86L751.01 633.12L750.45 633.38L749.81 633.62L749.11 633.86L748.35 634.09L747.52 634.32L746.64 634.55L745.7 634.79L744.71 635.03L743.67 635.27L742.59 635.52L741.47 635.79L740.32 636.07L739.14 636.36L737.92 636.68L736.69 637.01L735.43 637.37L734.15 637.75L732.86 638.16L731.57 638.6L730.26 639.07L728.96 639.58L727.65 640.12L726.36 640.7L725.07 641.32L723.79 641.99L722.53 642.7L721.29 643.46L720.07 644.27L718.88 645.13L717.73 646.05L716.6 647.02L715.52 648.05L714.49 649.14L713.51 650.26L712.6 651.42L711.74 652.61L710.93 653.82L710.17 655.06L709.46 656.32L708.79 657.6L708.17 658.89L707.59 660.19L707.05 661.49L706.54 662.79L706.07 664.1L705.63 665.39L705.22 666.68L704.84 667.96L704.49 669.21L704.15 670.45L703.84 671.66L703.54 672.85L703.26 674L703 675.12L702.75 676.2L702.5 677.23L702.26 678.22L702.03 679.16L701.8 680.05L701.57 680.87L701.34 681.64L701.1 682.34L700.86 682.97L700.6 683.53L700.34 684.01L700.06 684.41L699.77 684.73L699.45 684.97L699.12 685.11L698.77 685.15L698.73 685.15L698.68 685.15L698.33 685.11L698 684.97L697.68 684.73L697.39 684.41L697.11 684.01L696.85 683.53L696.6 682.97L696.35 682.34L696.11 681.64L695.88 680.87L695.65 680.05L695.42 679.16L695.19 678.22L694.95 677.23L694.71 676.2L694.45 675.12L694.19 674L693.91 672.85L693.61 671.66L693.3 670.45L692.97 669.21L692.61 667.96L692.23 666.68L691.82 665.39L691.38 664.1L690.91 662.79L690.4 661.49L689.86 660.19L689.28 658.89L688.66 657.6L687.99 656.32L687.28 655.06L686.52 653.82L685.71 652.61L684.85 651.42L683.94 650.26L682.96 649.14L681.93 648.05L680.85 647.02L679.72 646.05L678.57 645.13L677.38 644.27L676.16 643.46L674.92 642.7L673.66 641.99L672.38 641.32L671.09 640.7L669.8 640.12L668.49 639.58L667.19 639.07L665.88 638.6L664.59 638.16L663.3 637.75L662.02 637.37L660.76 637.01L659.53 636.68L658.31 636.36L657.13 636.07L655.98 635.79L654.86 635.52L653.78 635.27L652.74 635.03L651.75 634.79L650.82 634.55L649.93 634.32L649.1 634.09L648.34 633.86L647.64 633.62L647 633.38L646.44 633.12L645.96 632.86L645.56 632.58L645.44 632.47L645.42 632.46L645.16 632.26L644.97 632.05L644.86 631.82L644.82 631.58L644.84 631.43L644.82 631.29L644.86 631.05L644.97 630.82L645.16 630.61L645.42 630.41L645.44 630.4L645.56 630.29L645.96 630.01L646.44 629.75L647 629.49L647.64 629.25L648.34 629.01L649.1 628.78L649.93 628.55L650.82 628.31L651.75 628.08L652.74 627.84L653.78 627.6L654.86 627.34L655.98 627.08L657.13 626.8L658.31 626.5L659.53 626.19L660.76 625.86L662.02 625.5L663.3 625.12L664.59 624.71L665.88 624.27L667.19 623.8L668.49 623.29L669.8 622.75L671.09 622.17L672.38 621.54L673.66 620.88L674.92 620.17L676.16 619.41L677.38 618.6L678.57 617.74L679.72 616.82L680.85 615.85L681.93 614.81L682.96 613.73L683.94 612.61L684.85 611.45L685.71 610.26L686.52 609.05L687.28 607.81L687.99 606.55L688.66 605.27L689.28 603.98L689.86 602.68L690.4 601.38L690.91 600.07L691.38 598.77L691.82 597.47L692.23 596.19L692.61 594.91L692.97 593.65L693.3 592.42L693.61 591.2L693.91 590.02L694.19 588.87L694.45 587.75L694.71 586.67L694.95 585.63L695.19 584.65L695.42 583.71L695.65 582.82L695.88 582L696.11 581.23L696.35 580.53L696.6 579.9L696.85 579.34L697.11 578.86L697.39 578.45L697.68 578.13L698 577.9L698.33 577.76L698.68 577.72L698.73 577.72L698.77 577.72L699.12 577.76L699.45 577.9Z" id="avi9MoTOf"></path><path d="M212.61 237.85L212.92 238.08L213.21 238.4L213.49 238.81L213.75 239.29L214.01 239.85L214.25 240.48L214.49 241.18L214.72 241.94L214.95 242.77L215.18 243.66L215.42 244.59L215.65 245.58L215.9 246.62L216.15 247.7L216.42 248.81L216.7 249.97L216.99 251.15L217.3 252.37L217.64 253.6L217.99 254.86L218.38 256.13L218.79 257.42L219.22 258.72L219.7 260.02L220.2 261.33L220.74 262.63L221.32 263.93L221.95 265.22L222.61 266.5L223.32 267.76L224.08 269L224.89 270.21L225.75 271.4L226.67 272.56L227.64 273.68L228.67 274.76L229.76 275.8L230.88 276.77L232.04 277.69L233.23 278.55L234.44 279.36L235.68 280.12L236.94 280.83L238.22 281.49L239.51 282.12L240.81 282.7L242.11 283.24L243.42 283.74L244.72 284.22L246.02 284.65L247.31 285.06L248.58 285.45L249.84 285.8L251.08 286.14L252.29 286.45L253.47 286.75L254.63 287.03L255.74 287.29L256.82 287.55L257.86 287.79L258.85 288.03L259.79 288.26L260.67 288.49L261.5 288.73L262.27 288.96L262.97 289.2L263.6 289.44L264.16 289.69L264.64 289.96L265.04 290.24L265.17 290.35L265.18 290.36L265.44 290.56L265.63 290.77L265.75 291L265.78 291.23L265.77 291.38L265.78 291.53L265.75 291.77L265.63 292L265.44 292.21L265.18 292.41L265.17 292.42L265.04 292.53L264.64 292.81L264.16 293.07L263.6 293.33L262.97 293.57L262.27 293.81L261.5 294.04L260.67 294.27L259.79 294.5L258.85 294.74L257.86 294.97L256.82 295.22L255.74 295.47L254.63 295.74L253.47 296.02L252.29 296.31L251.08 296.63L249.84 296.96L248.58 297.32L247.31 297.7L246.02 298.11L244.72 298.55L243.42 299.02L242.11 299.53L240.81 300.07L239.51 300.65L238.22 301.27L236.94 301.94L235.68 302.65L234.44 303.41L233.23 304.22L232.04 305.08L230.88 306L229.76 306.97L228.67 308L227.64 309.09L226.67 310.21L225.75 311.37L224.89 312.55L224.08 313.77L223.32 315.01L222.61 316.27L221.95 317.55L221.32 318.84L220.74 320.13L220.2 321.44L219.7 322.74L219.22 324.05L218.79 325.34L218.38 326.63L217.99 327.91L217.64 329.16L217.3 330.4L216.99 331.61L216.7 332.8L216.42 333.95L216.15 335.07L215.9 336.15L215.65 337.18L215.42 338.17L215.18 339.11L214.95 339.99L214.72 340.82L214.49 341.59L214.25 342.29L214.01 342.92L213.75 343.48L213.49 343.96L213.21 344.36L212.92 344.68L212.61 344.91L212.27 345.06L211.92 345.1L211.88 345.1L211.84 345.1L211.48 345.06L211.15 344.91L210.84 344.68L210.54 344.36L210.26 343.96L210 343.48L209.75 342.92L209.5 342.29L209.27 341.59L209.03 340.82L208.8 339.99L208.57 339.11L208.34 338.17L208.1 337.18L207.86 336.15L207.6 335.07L207.34 333.95L207.06 332.8L206.76 331.61L206.45 330.4L206.12 329.16L205.76 327.91L205.38 326.63L204.97 325.34L204.53 324.05L204.06 322.74L203.55 321.44L203.01 320.13L202.43 318.84L201.81 317.55L201.14 316.27L200.43 315.01L199.67 313.77L198.87 312.55L198 311.37L197.09 310.21L196.11 309.09L195.08 308L194 306.97L192.88 306L191.72 305.08L190.53 304.22L189.31 303.41L188.07 302.65L186.81 301.94L185.54 301.27L184.25 300.65L182.95 300.07L181.64 299.53L180.34 299.02L179.04 298.55L177.74 298.11L176.45 297.7L175.17 297.32L173.92 296.96L172.68 296.63L171.47 296.31L170.28 296.02L169.13 295.74L168.01 295.47L166.93 295.22L165.9 294.97L164.91 294.74L163.97 294.5L163.08 294.27L162.26 294.04L161.49 293.81L160.79 293.57L160.16 293.33L159.6 293.07L159.11 292.81L158.71 292.53L158.59 292.42L158.57 292.41L158.31 292.21L158.12 292L158.01 291.77L157.97 291.53L157.99 291.38L157.97 291.23L158.01 291L158.12 290.77L158.31 290.56L158.57 290.36L158.59 290.35L158.71 290.24L159.11 289.96L159.6 289.69L160.16 289.44L160.79 289.2L161.49 288.96L162.26 288.73L163.08 288.49L163.97 288.26L164.91 288.03L165.9 287.79L166.93 287.55L168.01 287.29L169.13 287.03L170.28 286.75L171.47 286.45L172.68 286.14L173.92 285.8L175.17 285.45L176.45 285.06L177.74 284.65L179.04 284.22L180.34 283.74L181.64 283.24L182.95 282.7L184.25 282.12L185.54 281.49L186.81 280.83L188.07 280.12L189.31 279.36L190.53 278.55L191.72 277.69L192.88 276.77L194 275.8L195.08 274.76L196.11 273.68L197.09 272.56L198 271.4L198.87 270.21L199.67 269L200.43 267.76L201.14 266.5L201.81 265.22L202.43 263.93L203.01 262.63L203.55 261.33L204.06 260.02L204.53 258.72L204.97 257.42L205.38 256.13L205.76 254.86L206.12 253.6L206.45 252.37L206.76 251.15L207.06 249.97L207.34 248.81L207.6 247.7L207.86 246.62L208.1 245.58L208.34 244.59L208.57 243.66L208.8 242.77L209.03 241.94L209.27 241.18L209.5 240.48L209.75 239.85L210 239.29L210.26 238.81L210.54 238.4L210.84 238.08L211.15 237.85L211.48 237.71L211.84 237.66L211.88 237.67L211.92 237.66L212.27 237.71L212.61 237.85Z" id="a3b6K49ljY"></path><path d="M755.73 441.38C755.73 449.28 749.32 455.7 741.42 455.7C733.51 455.7 727.1 449.28 727.1 441.38C727.1 433.48 733.51 427.06 741.42 427.06C749.32 427.06 755.73 433.48 755.73 441.38Z" id="cBdcPa2MD"></path><path d="M372.82 794.76C372.82 802.66 366.41 809.08 358.51 809.08C350.6 809.08 344.19 802.66 344.19 794.76C344.19 786.86 350.6 780.44 358.51 780.44C366.41 780.44 372.82 786.86 372.82 794.76Z" id="b6b5YrXt"></path><path d="M372.87 473.47L373.22 473.51L373.55 473.66L373.87 473.89L374.16 474.21L374.44 474.61L374.7 475.09L374.95 475.65L375.2 476.28L375.44 476.98L375.67 477.75L375.9 478.58L376.13 479.46L376.36 480.4L376.6 481.39L376.84 482.42L377.1 483.5L377.36 484.62L377.64 485.77L377.94 486.96L378.25 488.17L378.58 489.41L378.94 490.66L379.32 491.94L379.73 493.23L380.17 494.52L380.64 495.83L381.15 497.13L381.69 498.44L382.27 499.73L382.89 501.02L383.56 502.3L384.27 503.56L385.03 504.8L385.84 506.02L386.7 507.2L387.61 508.36L388.59 509.48L389.62 510.57L390.7 511.6L391.83 512.57L392.98 513.49L394.17 514.35L395.39 515.16L396.63 515.92L397.89 516.63L399.17 517.3L400.46 517.92L401.75 518.5L403.06 519.04L404.36 519.55L405.67 520.02L406.96 520.46L408.25 520.87L409.53 521.25L410.79 521.61L412.02 521.94L413.24 522.26L414.42 522.55L415.57 522.83L416.69 523.1L417.77 523.35L418.81 523.6L419.8 523.83L420.73 524.07L421.62 524.3L422.45 524.53L423.21 524.76L423.91 525L424.55 525.25L425.1 525.5L425.59 525.76L425.99 526.04L426.11 526.15L426.13 526.16L426.39 526.36L426.58 526.57L426.69 526.8L426.73 527.04L426.71 527.19L426.73 527.34L426.69 527.57L426.58 527.8L426.39 528.01L426.13 528.21L426.11 528.22L425.99 528.33L425.59 528.61L425.1 528.88L424.55 529.13L423.91 529.37L423.21 529.61L422.45 529.84L421.62 530.08L420.73 530.31L419.8 530.54L418.81 530.78L417.77 531.02L416.69 531.28L415.57 531.54L414.42 531.82L413.24 532.12L412.02 532.43L410.79 532.77L409.53 533.12L408.25 533.51L406.96 533.92L405.67 534.36L404.36 534.83L403.06 535.33L401.75 535.87L400.46 536.46L399.17 537.08L397.89 537.74L396.63 538.45L395.39 539.21L394.17 540.02L392.98 540.88L391.83 541.8L390.7 542.77L389.62 543.81L388.59 544.89L387.61 546.01L386.7 547.17L385.84 548.36L385.03 549.57L384.27 550.81L383.56 552.08L382.89 553.35L382.27 554.64L381.69 555.94L381.15 557.24L380.64 558.55L380.17 559.85L379.73 561.15L379.32 562.44L378.94 563.71L378.58 564.97L378.25 566.21L377.94 567.42L377.64 568.6L377.36 569.76L377.1 570.87L376.84 571.95L376.6 572.99L376.36 573.98L376.13 574.91L375.9 575.8L375.67 576.63L375.44 577.39L375.2 578.09L374.95 578.72L374.7 579.28L374.44 579.77L374.16 580.17L373.87 580.49L373.55 580.72L373.22 580.86L372.87 580.91L372.82 580.9L372.78 580.91L372.43 580.86L372.1 580.72L371.78 580.49L371.49 580.17L371.21 579.77L370.95 579.28L370.69 578.72L370.45 578.09L370.21 577.39L369.98 576.63L369.75 575.8L369.52 574.91L369.29 573.98L369.05 572.99L368.8 571.95L368.55 570.87L368.29 569.76L368.01 568.6L367.71 567.42L367.4 566.21L367.06 564.97L366.71 563.71L366.33 562.44L365.92 561.15L365.48 559.85L365.01 558.55L364.5 557.24L363.96 555.94L363.38 554.64L362.76 553.35L362.09 552.08L361.38 550.81L360.62 549.57L359.81 548.36L358.95 547.17L358.03 546.01L357.06 544.89L356.03 543.81L354.94 542.77L353.82 541.8L352.66 540.88L351.48 540.02L350.26 539.21L349.02 538.45L347.76 537.74L346.48 537.08L345.19 536.46L343.89 535.87L342.59 535.33L341.29 534.83L339.98 534.36L338.68 533.92L337.4 533.51L336.12 533.12L334.86 532.77L333.63 532.43L332.41 532.12L331.23 531.82L330.07 531.54L328.96 531.28L327.88 531.02L326.84 530.78L325.85 530.54L324.91 530.31L324.03 530.08L323.2 529.84L322.44 529.61L321.74 529.37L321.1 529.13L320.54 528.88L320.06 528.61L319.66 528.33L319.54 528.22L319.52 528.21L319.26 528.01L319.07 527.8L318.96 527.57L318.92 527.34L318.94 527.19L318.92 527.04L318.96 526.8L319.07 526.57L319.26 526.36L319.52 526.16L319.54 526.15L319.66 526.04L320.06 525.76L320.54 525.5L321.1 525.25L321.74 525L322.44 524.76L323.2 524.53L324.03 524.3L324.91 524.07L325.85 523.83L326.84 523.6L327.88 523.35L328.96 523.1L330.07 522.83L331.23 522.55L332.41 522.26L333.63 521.94L334.86 521.61L336.12 521.25L337.4 520.87L338.68 520.46L339.98 520.02L341.29 519.55L342.59 519.04L343.89 518.5L345.19 517.92L346.48 517.3L347.76 516.63L349.02 515.92L350.26 515.16L351.48 514.35L352.66 513.49L353.82 512.57L354.94 511.6L356.03 510.57L357.06 509.48L358.03 508.36L358.95 507.2L359.81 506.02L360.62 504.8L361.38 503.56L362.09 502.3L362.76 501.02L363.38 499.73L363.96 498.44L364.5 497.13L365.01 495.83L365.48 494.52L365.92 493.23L366.33 491.94L366.71 490.66L367.06 489.41L367.4 488.17L367.71 486.96L368.01 485.77L368.29 484.62L368.55 483.5L368.8 482.42L369.05 481.39L369.29 480.4L369.52 479.46L369.75 478.58L369.98 477.75L370.21 476.98L370.45 476.28L370.69 475.65L370.95 475.09L371.21 474.61L371.49 474.21L371.78 473.89L372.1 473.66L372.43 473.51L372.78 473.47L372.82 473.48L372.87 473.47Z" id="b46L7MDD"></path></defs><g><g><g><g><use xlink:href="#a17DDIAgU2" opacity="1" fill="#ffffff" fill-opacity="1"></use></g><g><use xlink:href="#k3n7iPCCu" opacity="1" fill="#ffffff" fill-opacity="1"></use></g><g><use xlink:href="#bJKjEEMWK" opacity="1" fill="#ffffff" fill-opacity="1"></use></g><g><use xlink:href="#aBZ3ejb6t" opacity="1" fill="#ffffff" fill-opacity="1"></use><g><use xlink:href="#aBZ3ejb6t" opacity="1" fill-opacity="0" stroke="#000000" stroke-width="0" stroke-opacity="1"></use></g></g><g><use xlink:href="#b1k7K2C9Si" opacity="1" fill="#ffffff" fill-opacity="1"></use><g><use xlink:href="#b1k7K2C9Si" opacity="1" fill-opacity="0" stroke="#000000" stroke-width="0" stroke-opacity="1"></use></g></g><g><use xlink:href="#e1nF9agu0S" opacity="1" fill="#ffffff" fill-opacity="1"></use></g><g><use xlink:href="#avi9MoTOf" opacity="1" fill="#ffffff" fill-opacity="1"></use><g><use xlink:href="#avi9MoTOf" opacity="1" fill-opacity="0" stroke="#000000" stroke-width="0" stroke-opacity="1"></use></g></g><g><use xlink:href="#a3b6K49ljY" opacity="1" fill="#ffffff" fill-opacity="1"></use><g><use xlink:href="#a3b6K49ljY" opacity="1" fill-opacity="0" stroke="#000000" stroke-width="0" stroke-opacity="1"></use></g></g><g><use xlink:href="#cBdcPa2MD" opacity="1" fill="#ffffff" fill-opacity="1"></use></g><g><use xlink:href="#b6b5YrXt" opacity="1" fill="#ffffff" fill-opacity="1"></use></g><g><use xlink:href="#b46L7MDD" opacity="1" fill="#ffffff" fill-opacity="1"></use><g><use xlink:href="#b46L7MDD" opacity="1" fill-opacity="0" stroke="#000000" stroke-width="0" stroke-opacity="1"></use></g></g></g></g></g></svg>